<?xml version="1.0" encoding="iso-8859-1"?>
<!-- Generator: Adobe Illustrator 19.0.0, SVG Export Plug-In . SVG Version: 6.00 Build 0)  -->
<svg version="1.1" id="Capa_1" xmlns="http://www.w3.org/2000/svg" xmlns:xlink="http://www.w3.org/1999/xlink" x="0px" y="0px"
	 viewBox="0 0 512 512" style="enable-background:new 0 0 512 512;" xml:space="preserve">
<path style="fill:#80D8FF;" d="M474.427,53.605H37.573c-16.601,0-30.059,13.457-30.059,30.059v230.45h496.971V83.663
	C504.485,67.062,491.028,53.605,474.427,53.605z"/>
<path style="fill:#40C4FF;" d="M241.973,294.074V82.12l-17.109-28.516h-65.977L141.777,82.12V53.605H37.573
	c-2.059,0-4.069,0.208-6.012,0.602v239.867H7.515v20.039h496.971v-20.039H241.973z"/>
<g>
	<path style="fill:#D8D7DA;" d="M356.196,464.407H155.804c-11.068,0-20.039,8.972-20.039,20.039v20.039h240.47v-20.039
		C376.235,473.379,367.263,464.407,356.196,464.407z"/>
	<rect x="185.863" y="394.27" style="fill:#D8D7DA;" width="140.274" height="70.137"/>
	<path style="fill:#D8D7DA;" d="M7.515,364.211c0,16.601,13.457,30.059,30.059,30.059h436.853c16.601,0,30.059-13.457,30.059-30.059
		v-50.098H7.515V364.211z"/>
</g>
<g>
	<rect x="185.863" y="394.27" style="fill:#ACABB1;" width="140.274" height="20.039"/>
	<rect x="185.863" y="444.368" style="fill:#ACABB1;" width="140.274" height="20.039"/>
	<rect x="135.765" y="484.446" style="fill:#ACABB1;" width="240.47" height="20.039"/>
	<path style="fill:#ACABB1;" d="M474.427,374.231H37.573c-16.601,0-30.059-13.457-30.059-30.059v20.039
		c0,16.601,13.457,30.059,30.059,30.059h436.853c16.601,0,30.059-13.457,30.059-30.059v-20.039
		C504.485,360.774,491.028,374.231,474.427,374.231z"/>
</g>
<g>
	<rect x="51.601" y="7.515" style="fill:#FDD835;" width="70.137" height="306.599"/>
	<rect x="161.816" y="274.035" style="fill:#FDD835;" width="60.117" height="40.078"/>
</g>
<polygon style="fill:#ED593B;" points="191.875,105.706 161.816,87.671 161.816,274.035 221.933,274.035 221.933,87.671 "/>
<polygon style="fill:#FDD8A8;" points="221.933,87.671 191.875,37.573 161.816,87.671 191.875,105.706 "/>
<rect x="314.113" y="83.663" style="fill:#B0EF60;" width="160.313" height="70.137"/>
<g>
	<rect x="314.113" y="183.859" style="fill:#FDD835;" width="65.127" height="40.078"/>
	<rect x="409.299" y="183.859" style="fill:#FDD835;" width="65.127" height="40.078"/>
</g>
<g>
	<rect x="314.113" y="203.898" style="fill:#FBC02D;" width="65.127" height="20.039"/>
	<rect x="409.299" y="203.898" style="fill:#FBC02D;" width="65.127" height="20.039"/>
</g>
<rect x="314.113" y="133.761" style="fill:#64DD17;" width="160.313" height="20.039"/>
<rect x="161.816" y="294.074" style="fill:#FBC02D;" width="60.117" height="20.039"/>
<rect x="161.816" y="253.996" style="fill:#E23423;" width="60.117" height="20.039"/>
<rect x="51.601" y="294.074" style="fill:#FBC02D;" width="70.137" height="20.039"/>
<polygon style="fill:#FFC477;" points="172.126,70.488 161.816,87.671 191.875,105.706 221.933,87.671 211.623,70.488 
	191.875,82.337 "/>
<path d="M474.427,46.09H230.951v15.029h243.476c12.43,0,22.544,10.113,22.544,22.544v222.935H229.448V85.59l-37.573-62.622
	L154.301,85.59v221.009h-25.049V0H44.086v306.599H15.029V83.663c0-9.257,5.801-17.715,14.435-21.044l-5.409-14.022
	C9.667,54.147,0,68.238,0,83.663v280.548c0,20.718,16.855,37.573,37.573,37.573h140.775v55.108h-22.544
	c-15.193,0-27.554,12.36-27.554,27.554V512H383.75v-27.554c0-15.194-12.361-27.554-27.554-27.554h-22.544v-55.108h140.775
	c20.718,0,37.573-16.855,37.573-37.573V83.663C512,62.945,495.145,46.09,474.427,46.09z M191.875,52.18l19.749,32.914
	l-19.749,11.848l-19.749-11.849L191.875,52.18z M169.331,100.943l22.544,13.526l22.544-13.526v165.577h-45.088V100.943z
	 M169.331,281.55h45.088v25.049h-45.088V281.55z M59.115,288.564h36.571v-15.029H59.115v-15.029h20.54v-15.029h-20.54v-15.029
	h36.571v-15.029H59.115v-15.029h20.54v-15.029h-20.54v-15.029h36.571v-15.029H59.115V138.27h20.54v-15.029h-20.54v-15.029h36.571
	V93.182H59.115V78.153h20.54V63.123h-20.54V48.094h36.571V33.065H59.115V15.029h55.108v291.569H59.115V288.564z M356.196,471.922
	c6.906,0,12.524,5.618,12.524,12.524v12.524H143.28v-12.524c0-6.906,5.618-12.524,12.524-12.524H356.196z M193.378,456.892v-55.108
	h125.245v55.108H193.378z M496.971,364.211c0,12.431-10.114,22.544-22.544,22.544H37.573c-12.43,0-22.544-10.113-22.544-22.544
	v-42.583h481.941V364.211z"/>
<path d="M481.941,76.149H306.599v85.166h175.342V76.149z M466.912,146.286H321.628V91.178h145.284V146.286z"/>
<path d="M306.599,231.452h80.157v-55.108h-80.157V231.452z M321.628,191.374h50.098v25.049h-50.098V191.374z"/>
<path d="M481.941,231.452v-55.108h-80.157v55.108H481.941z M416.814,191.374h50.098v25.049h-50.098V191.374z"/>
<polygon points="244.978,276.54 244.978,291.569 290.067,291.569 290.067,276.54 275.037,276.54 275.037,91.178 290.067,91.178 
	290.067,76.149 244.978,76.149 244.978,91.178 260.008,91.178 260.008,276.54 "/>
<g>
	<path style="fill:#FFFFFF;" d="M293.573,361.706h-15.029v-15.029h15.029V361.706z M263.515,361.706h-15.029v-15.029h15.029V361.706
		z M233.456,361.706h-15.029v-15.029h15.029V361.706z"/>
	<path style="fill:#FFFFFF;" d="M199.389,250.99H184.36v-25.049h15.029V250.99z M199.389,210.912H184.36v-15.029h15.029V210.912z
		 M199.389,180.853H184.36v-50.098h15.029V180.853z"/>
	<path style="fill:#FFFFFF;" d="M379.241,266.521h-15.029v-15.029h15.029V266.521z M349.182,266.521h-35.069v-15.029h35.069V266.521
		z"/>
	<path style="fill:#FFFFFF;" d="M474.427,266.521h-15.029v-15.029h15.029V266.521z M444.368,266.521h-35.068v-15.029h35.068V266.521
		z"/>
</g>
<g>
</g>
<g>
</g>
<g>
</g>
<g>
</g>
<g>
</g>
<g>
</g>
<g>
</g>
<g>
</g>
<g>
</g>
<g>
</g>
<g>
</g>
<g>
</g>
<g>
</g>
<g>
</g>
<g>
</g>
</svg>
